# xmcd CD database file
#
# Track frame offsets:
#	150
#	17602
#	38655
#	60979
#	80633
#	93589
#	106503
#	127501
#	139792
#	156071
#
# Disc length: 2351 seconds
#
# Revision: 0
# Processed by: cddbd v1.5.2PL0 Copyright (c) Steve Scherf et al.
# Submitted via: CDex 1.70beta2
#
DISCID=68092d0a
DTITLE=Jazzchor Feiburg - Commemorative Album of 2005 Korean Tour CD 1
DYEAR=2005
DGENRE=Jazz
TTITLE0=Four Brothers
TTITLE1=Guitar Man
TTITLE2=Straighten Up And Fly Right
TTITLE3=Mr. P.C.
TTITLE4=Praeludium Nr. 1
TTITLE5=Amezaliwa
TTITLE6=Desafinado
TTITLE7=Ain't But The One
TTITLE8=On The Sunny Side Of The Street
TTITLE9=Oh, Lady Be Good
EXTD=YEAR: 2005
EXTT0=
EXTT1=
EXTT2=
EXTT3=
EXTT4=
EXTT5=
EXTT6=
EXTT7=
EXTT8=
EXTT9=
PLAYORDER=
